<svg width="24" height="24" viewBox="0 0 24 24" fill="none" xmlns="http://www.w3.org/2000/svg">
<rect width="21.5" height="21.5" transform="translate(1.25 1.25)" fill="white"/>
<path fill-rule="evenodd" clip-rule="evenodd" d="M12 22.75C6.06294 22.75 1.25 17.9371 1.25 12C1.25 6.06294 6.06294 1.25 12 1.25C17.9371 1.25 22.75 6.06294 22.75 12C22.75 17.9371 17.9371 22.75 12 22.75ZM12 21.25C17.1086 21.25 21.25 17.1086 21.25 12C21.25 6.89137 17.1086 2.75 12 2.75C6.89137 2.75 2.75 6.89137 2.75 12C2.75 17.1086 6.89137 21.25 12 21.25ZM9.7975 9.24888C9.66005 9.63962 9.23186 9.84496 8.84112 9.7075C8.45038 9.57005 8.24505 9.14186 8.3825 8.75112C8.9893 7.02617 10.7517 5.99038 12.554 6.29951C14.3562 6.60864 15.6727 8.17256 15.67 10C15.67 11.1785 14.9607 12.1242 13.836 12.874C13.2087 13.2922 12.5899 13.5673 12.1572 13.7115C11.7642 13.8425 11.3395 13.6301 11.2085 13.2372C11.0775 12.8442 11.2899 12.4195 11.6828 12.2885C11.7549 12.2645 11.8968 12.2104 12.0841 12.1271C12.3994 11.987 12.7143 11.8191 13.004 11.626C13.7543 11.1258 14.17 10.5715 14.17 9.99888C14.1716 8.90175 13.3817 7.9634 12.3004 7.77792C11.219 7.59244 10.1616 8.21392 9.7975 9.24888ZM12 17C11.4477 17 11 16.5523 11 16C11 15.4477 11.4477 15 12 15C12.5523 15 13 15.4477 13 16C13 16.5523 12.5523 17 12 17Z" fill="#6E0AD6"/>
</svg>
