<svg width="24" height="25" viewBox="0 0 24 25" fill="none" xmlns="http://www.w3.org/2000/svg">
<rect width="21.3888" height="21.4273" transform="translate(1.25 1.75)" fill="white"/>
<path fill-rule="evenodd" clip-rule="evenodd" d="M22.6381 20.4171C22.6413 21.1914 22.3178 21.9311 21.7472 22.4546C21.1766 22.9781 20.4118 23.2368 19.6271 23.1657C16.4333 22.8187 13.3655 21.7273 10.6759 19.9831C8.16678 18.3887 6.0395 16.2614 4.44867 13.7579C2.6946 11.0502 1.603 7.96744 1.26117 4.7476C1.1917 3.9788 1.44854 3.2162 1.96897 2.64608C2.4894 2.07596 3.22549 1.75083 3.99813 1.7501L6.99075 1.75014C8.37106 1.73655 9.54756 2.74834 9.74169 4.12203C9.86091 5.02602 10.082 5.91362 10.4002 6.7662C10.7779 7.77116 10.5363 8.90406 9.77846 9.67043L8.92041 10.5285C10.1625 12.5349 11.8534 14.2258 13.8597 15.4678L14.7208 14.6068C15.4842 13.8519 16.6171 13.6103 17.6203 13.9874C18.4746 14.3062 19.3622 14.5273 20.2729 14.6475C21.6522 14.842 22.6677 16.0371 22.6381 17.4287L22.6381 20.4171ZM21.1381 17.4201C21.1541 16.767 20.6918 16.2214 20.0701 16.1337C19.0539 15.9996 18.0562 15.7511 17.0942 15.3921C16.6374 15.2204 16.1225 15.3303 15.7785 15.6704L14.5085 16.9404C14.2697 17.1792 13.9009 17.229 13.6074 17.0621C10.9865 15.5718 8.81644 13.4017 7.32616 10.7808C7.15927 10.4873 7.20906 10.1185 7.4478 9.87977L8.71484 8.61274C9.05797 8.26575 9.1678 7.75079 8.99545 7.2923C8.63713 6.33204 8.38859 5.33431 8.25551 4.32506C8.1677 3.70379 7.63292 3.24389 6.99813 3.2501L3.99883 3.2501C3.64795 3.25043 3.31337 3.39822 3.07681 3.65736C2.84025 3.91651 2.7235 4.26314 2.75393 4.6009C3.06974 7.57475 4.08161 10.4324 5.71114 12.9479C7.18742 15.2711 9.15713 17.2408 11.4862 18.7208C13.9848 20.3412 16.8286 21.3528 19.7756 21.6731C20.1262 21.7048 20.4738 21.5873 20.7332 21.3493C20.9925 21.1114 21.1396 20.7751 21.1381 20.4201V17.4201Z" fill="#6E0AD6"/>
</svg>
