<svg width="24" height="25" viewBox="0 0 24 25" fill="none" xmlns="http://www.w3.org/2000/svg">
<rect width="21.5002" height="21.5" transform="translate(1.25 1.75)" fill="white"/>
<path fill-rule="evenodd" clip-rule="evenodd" d="M10.2501 21.75V14.5C10.2501 14.0858 10.5859 13.75 11.0001 13.75H17.0001C17.4143 13.75 17.7501 14.0858 17.7501 14.5V21.75H19.0001C19.6904 21.75 20.2501 21.1904 20.2501 20.5V13C20.2501 12.5858 20.5859 12.25 21.0001 12.25C21.4143 12.25 21.7501 12.5858 21.7501 13V20.5C21.7501 22.0188 20.5189 23.25 19.0001 23.25H5.00008C3.4813 23.25 2.25008 22.0188 2.25008 20.5V13C2.25008 12.5858 2.58587 12.25 3.00008 12.25C3.41429 12.25 3.75008 12.5858 3.75008 13V20.5C3.75008 21.1904 4.30972 21.75 5.00008 21.75H10.2501ZM11.7501 21.75H16.2501V15.25H11.7501V21.75ZM1.58405 10.124C1.28323 9.92349 1.1683 9.53687 1.31072 9.20456L4.31072 2.20456C4.4289 1.9288 4.70006 1.75 5.00008 1.75H19.0001C19.3001 1.75 19.5713 1.9288 19.6894 2.20456L22.6894 9.20456C22.8319 9.53687 22.7169 9.92349 22.4161 10.124C21.2983 10.8692 20.156 11.25 19.0001 11.25C18.2156 11.25 17.7626 11.0853 17.003 10.6512C16.4501 10.3353 16.2156 10.25 15.7501 10.25C15.3468 10.25 15.0873 10.3272 14.6426 10.5479C14.5956 10.5713 14.5256 10.6066 14.398 10.6708C13.5936 11.073 12.9742 11.25 12.0001 11.25C11.026 11.25 10.4066 11.073 9.60217 10.6708C9.47457 10.6066 9.4046 10.5713 9.35755 10.5479C8.91288 10.3272 8.65334 10.25 8.25008 10.25C7.78453 10.25 7.55002 10.3353 6.99718 10.6512C6.23752 11.0853 5.78453 11.25 5.00008 11.25C3.84416 11.25 2.70184 10.8692 1.58405 10.124ZM5.00008 9.75C5.46563 9.75 5.70014 9.66472 6.25298 9.34882C7.01264 8.91472 7.46563 8.75 8.25008 8.75C8.92092 8.75 9.39059 8.88965 10.0246 9.20439C10.0768 9.23033 10.1523 9.26842 10.273 9.32918C10.8852 9.63531 11.2867 9.75 12.0001 9.75C12.7135 9.75 13.1149 9.63531 13.7272 9.32918C13.8478 9.26842 13.9234 9.23033 13.9756 9.20439C14.6096 8.88965 15.0792 8.75 15.7501 8.75C16.5345 8.75 16.9875 8.91472 17.7472 9.34882C18.3 9.66472 18.5345 9.75 19.0001 9.75C19.674 9.75 20.3566 9.56776 21.0534 9.19496L18.5055 3.25H5.49463L2.94678 9.19496C3.6436 9.56776 4.32617 9.75 5.00008 9.75Z" fill="#6E0AD6"/>
</svg>
