<svg width="24" height="25" viewBox="0 0 24 25" fill="none" xmlns="http://www.w3.org/2000/svg">
<rect width="22" height="14" transform="translate(1 5.5)" fill="white"/>
<path fill-rule="evenodd" clip-rule="evenodd" d="M23.3432 6.83313C23.593 6.96168 23.75 7.21906 23.75 7.5V17.5C23.75 17.7809 23.593 18.0383 23.3432 18.1669C23.0934 18.2954 22.7927 18.2736 22.5641 18.1103L15.5641 13.1103C15.367 12.9695 15.25 12.7422 15.25 12.5C15.25 12.2578 15.367 12.0305 15.5641 11.8897L22.5641 6.8897C22.7927 6.72641 23.0934 6.70457 23.3432 6.83313ZM17.2903 12.5L22.25 16.0426V8.95739L17.2903 12.5Z" fill="#6E0AD6"/>
<path fill-rule="evenodd" clip-rule="evenodd" d="M3 6.25C2.30964 6.25 1.75 6.80964 1.75 7.5V17.5C1.75 18.1904 2.30964 18.75 3 18.75H14C14.6904 18.75 15.25 18.1904 15.25 17.5V7.5C15.25 6.80964 14.6904 6.25 14 6.25H3ZM0.25 7.5C0.25 5.98122 1.48122 4.75 3 4.75H14C15.5188 4.75 16.75 5.98122 16.75 7.5V17.5C16.75 19.0188 15.5188 20.25 14 20.25H3C1.48122 20.25 0.25 19.0188 0.25 17.5V7.5Z" fill="#6E0AD6"/>
</svg>
