<svg width="24" height="25" viewBox="0 0 24 25" fill="none" xmlns="http://www.w3.org/2000/svg">
<rect width="22" height="22" transform="translate(1 1.5)" fill="white"/>
<path fill-rule="evenodd" clip-rule="evenodd" d="M4.24832 4.70222C6.31241 2.64168 9.10374 1.49008 12.0098 1.50006C14.9125 1.4953 17.6988 2.64921 19.7586 4.70918C21.8189 6.76959 22.9845 9.56847 23 12.4928L23 12.5021C22.9838 14.4948 22.4347 16.4463 21.4106 18.1513C20.3864 19.8563 18.925 21.2519 17.1801 22.1911C15.4351 23.1303 13.4711 23.5786 11.4947 23.4887C9.62859 23.4039 7.81651 22.8423 6.22802 21.8592L2.57368 23.0265C2.32676 23.1054 2.05678 23.0378 1.8753 22.8516C1.69381 22.6654 1.63162 22.3923 1.71442 22.1451L2.88576 18.6478C1.65506 16.8388 0.995903 14.6938 1.00002 12.4951L1.00003 12.4928C1.01555 9.56506 2.1838 6.76319 4.24832 4.70222ZM12.0067 2.885C9.46425 2.87583 7.02206 3.88317 5.21625 5.68587C3.41072 7.4883 2.38891 9.93857 2.37501 12.499C2.37148 14.5227 3.01213 16.4943 4.20293 18.1244C4.33584 18.3063 4.3723 18.5421 4.30061 18.7561L3.4508 21.2934L6.11802 20.4415C6.31528 20.3784 6.53022 20.4083 6.7032 20.5227C8.15046 21.4799 9.82707 22.0265 11.5567 22.1052C13.2863 22.1838 15.005 21.7916 16.532 20.9696C18.059 20.1477 19.3379 18.9265 20.2341 17.4344C21.1296 15.9437 21.61 14.2376 21.625 12.4954C21.6102 9.93929 20.5908 7.49307 18.7898 5.69197C16.9877 3.88976 14.5499 2.88041 12.0104 2.885L12.0067 2.885ZM9.43897 7.03067C9.67945 7.15625 9.9353 7.36521 10.0739 7.689C10.1398 7.84307 10.2317 8.06894 10.3289 8.30791C10.4014 8.48605 10.4768 8.67148 10.5467 8.83986C10.6319 9.04526 10.7111 9.2312 10.7759 9.37279C10.8085 9.44407 10.8342 9.49702 10.8529 9.53249C10.8567 9.5396 10.8598 9.54528 10.8622 9.54966C10.8821 9.57624 10.9001 9.60425 10.916 9.63347C11.011 9.80773 11.0608 10.0033 11.0608 10.2021C11.0608 10.3957 11.0135 10.5863 10.9233 10.7572C10.8906 10.8225 10.8506 10.8965 10.7963 10.9712C10.7366 11.0535 10.6761 11.1141 10.6263 11.1611C10.5996 11.1863 10.5737 11.2099 10.5455 11.2355C10.4921 11.2841 10.4304 11.3402 10.3393 11.4291C11.1466 12.6524 12.2811 13.6222 13.613 14.2254C13.7443 14.0546 13.9191 13.8062 14.0409 13.6124C14.2054 13.3507 14.4601 13.1291 14.8216 13.0873C15.1036 13.0546 15.3543 13.1519 15.4664 13.1954L15.4735 13.1981C15.7061 13.2883 16.7364 13.7931 17.184 14.0124C17.263 14.0511 17.3238 14.0809 17.3589 14.098C17.3851 14.1107 17.4141 14.1245 17.4445 14.1391C17.5369 14.1832 17.6428 14.2337 17.7248 14.2794C17.8247 14.335 18.0341 14.4568 18.1672 14.6866C18.2053 14.7524 18.2314 14.8219 18.2462 14.8926C18.3393 15.1729 18.3695 15.471 18.3341 15.7652C18.2963 16.0791 18.185 16.3793 18.0095 16.6411C17.0955 18.2408 15.5161 18.7495 13.8987 18.581C12.3017 18.4147 10.6002 17.5958 9.18951 16.4691C7.77852 15.3421 6.57923 13.8438 6.0607 12.2357C5.53094 10.5929 5.71888 8.82856 7.10585 7.35287C7.52932 6.88836 8.17819 6.77685 8.66301 6.81579C8.92363 6.83673 9.19578 6.90368 9.43897 7.03067ZM16.9682 15.4447C16.9612 15.4413 16.9539 15.4377 16.9462 15.434C16.9243 15.4235 16.9017 15.4127 16.8764 15.4006L16.8612 15.3933C16.8303 15.3786 16.7966 15.3624 16.7611 15.3452C16.7091 15.3199 16.6272 15.2798 16.5263 15.2304C16.1131 15.0282 15.3815 14.6702 15.084 14.5358C14.9044 14.8047 14.6745 15.1201 14.5199 15.2941C14.3781 15.4537 14.1597 15.6303 13.8431 15.6697C13.5616 15.7047 13.3141 15.6154 13.1308 15.525C11.441 14.7796 10.0153 13.5356 9.04183 11.957C9.03873 11.952 9.03571 11.9469 9.03274 11.9418C8.86185 11.6482 8.8207 11.3206 8.94398 11.0101C9.02921 10.7955 9.18811 10.6308 9.23219 10.5852C9.23619 10.581 9.23925 10.5778 9.24122 10.5757C9.24699 10.5694 9.25288 10.5633 9.25888 10.5572C9.44288 10.3719 9.57151 10.255 9.64197 10.191L9.64286 10.1902C9.64142 10.1875 9.64005 10.1849 9.63876 10.1824C9.60269 10.114 9.5647 10.0346 9.52714 9.95256C9.45157 9.78745 9.36462 9.58272 9.27795 9.37379C9.19806 9.18119 9.11968 8.98836 9.04723 8.81013C8.96308 8.60311 8.88694 8.41578 8.82573 8.2714C8.82085 8.2683 8.81441 8.26452 8.80611 8.26019C8.75425 8.23311 8.66661 8.20542 8.55369 8.19635C8.4423 8.1874 8.33413 8.19891 8.24818 8.22455C8.16024 8.25079 8.1252 8.28229 8.11832 8.28994C8.11488 8.29375 8.11141 8.29752 8.10789 8.30125C7.11574 9.35439 6.96896 10.569 7.36845 11.8079C7.77976 13.0835 8.77589 14.3712 10.0439 15.3839C11.3121 16.3969 12.7731 17.0714 14.0401 17.2034C15.2776 17.3323 16.2551 16.951 16.8285 15.9314C16.8394 15.9121 16.8511 15.8933 16.8638 15.8751C16.921 15.793 16.9571 15.698 16.9691 15.5985C16.9753 15.5472 16.9749 15.4955 16.9682 15.4447Z" fill="#6E0AD6"/>
</svg>
